<svg xmlns="http://www.w3.org/2000/svg" viewBox="0 0 480 120" width="480" height="120">
  <rect width="480" height="120" fill="#f5f5f7" rx="12"></rect>
  <g transform="translate(28,20)">
    <ellipse cx="40" cy="42" rx="32" ry="28" fill="#4f6ef7" fill-opacity="0.1"></ellipse>
    <line x1="14" y1="62" x2="22" y2="42" stroke="#4f6ef7" stroke-width="1.5" stroke-opacity="0.6"></line>
  <line x1="22" y1="42" x2="30" y2="22" stroke="#4f6ef7" stroke-width="1.5" stroke-opacity="0.6"></line>
  <line x1="30" y1="22" x2="38" y2="42" stroke="#4f6ef7" stroke-width="1.5" stroke-opacity="0.6"></line>
  <line x1="38" y1="42" x2="46" y2="62" stroke="#4f6ef7" stroke-width="1.5" stroke-opacity="0.6"></line>
  <line x1="22" y1="42" x2="26" y2="45" stroke="#4f6ef7" stroke-width="1.5" stroke-opacity="0.6"></line>
  <line x1="38" y1="42" x2="26" y2="45" stroke="#4f6ef7" stroke-width="1.5" stroke-opacity="0.6"></line>
  <line x1="54" y1="22" x2="54" y2="42" stroke="#4f6ef7" stroke-width="1.5" stroke-opacity="0.6"></line>
  <line x1="54" y1="42" x2="54" y2="62" stroke="#4f6ef7" stroke-width="1.5" stroke-opacity="0.6"></line>
  <line x1="54" y1="22" x2="66" y2="22" stroke="#4f6ef7" stroke-width="1.5" stroke-opacity="0.6"></line>
  <line x1="54" y1="42" x2="64" y2="42" stroke="#4f6ef7" stroke-width="1.5" stroke-opacity="0.6"></line>
    <circle cx="14" cy="62" r="2.8" fill="#27272a" stroke="#4f6ef7" stroke-width="1.5"></circle>
  <circle cx="22" cy="42" r="2.8" fill="#27272a" stroke="#4f6ef7" stroke-width="1.5"></circle>
  <circle cx="30" cy="22" r="4" fill="#4f6ef7" stroke="#4f6ef7" stroke-width="0"></circle>
  <circle cx="38" cy="42" r="2.8" fill="#27272a" stroke="#4f6ef7" stroke-width="1.5"></circle>
  <circle cx="46" cy="62" r="2.8" fill="#27272a" stroke="#4f6ef7" stroke-width="1.5"></circle>
  <circle cx="26" cy="45" r="2.8" fill="#27272a" stroke="#4f6ef7" stroke-width="1.5"></circle>
  <circle cx="54" cy="22" r="2.8" fill="#27272a" stroke="#4f6ef7" stroke-width="1.5"></circle>
  <circle cx="54" cy="42" r="2.8" fill="#27272a" stroke="#4f6ef7" stroke-width="1.5"></circle>
  <circle cx="54" cy="62" r="2.8" fill="#27272a" stroke="#4f6ef7" stroke-width="1.5"></circle>
  <circle cx="66" cy="22" r="2.8" fill="#27272a" stroke="#4f6ef7" stroke-width="1.5"></circle>
  <circle cx="64" cy="42" r="2.8" fill="#27272a" stroke="#4f6ef7" stroke-width="1.5"></circle>
  </g>
  <text x="130" y="66" font-family="&#39;Space Grotesk&#39;, &#39;Helvetica Neue&#39;, sans-serif" font-weight="600" font-size="34" letter-spacing="-0.7" fill="#4f6ef7">A</text>
  <text x="154" y="66" font-family="&#39;Space Grotesk&#39;, &#39;Helvetica Neue&#39;, sans-serif" font-weight="600" font-size="34" letter-spacing="-0.7" fill="#0a0a0b">gent</text>
  <text x="262" y="66" font-family="&#39;Space Grotesk&#39;, &#39;Helvetica Neue&#39;, sans-serif" font-weight="600" font-size="34" letter-spacing="-0.7" fill="#4f6ef7">F</text>
  <text x="281" y="66" font-family="&#39;Space Grotesk&#39;, &#39;Helvetica Neue&#39;, sans-serif" font-weight="600" font-size="34" letter-spacing="-0.7" fill="#0a0a0b">olio</text>
  <text x="131" y="86" font-family="&#39;Space Mono&#39;, monospace" font-size="10" letter-spacing="3" fill="#52525b">AGENTIC PORTFOLIO</text>
</svg>