<svg xmlns="http://www.w3.org/2000/svg" viewBox="0 0 80 80" width="80" height="80">
  <ellipse cx="40" cy="42" rx="32" ry="28" fill="#4f6ef7" fill-opacity="0.1"></ellipse>
  <line x1="14" y1="62" x2="22" y2="42" stroke="#4f6ef7" stroke-width="1.5" stroke-opacity="0.6"></line>
  <line x1="22" y1="42" x2="30" y2="22" stroke="#4f6ef7" stroke-width="1.5" stroke-opacity="0.6"></line>
  <line x1="30" y1="22" x2="38" y2="42" stroke="#4f6ef7" stroke-width="1.5" stroke-opacity="0.6"></line>
  <line x1="38" y1="42" x2="46" y2="62" stroke="#4f6ef7" stroke-width="1.5" stroke-opacity="0.6"></line>
  <line x1="22" y1="42" x2="26" y2="45" stroke="#4f6ef7" stroke-width="1.5" stroke-opacity="0.6"></line>
  <line x1="38" y1="42" x2="26" y2="45" stroke="#4f6ef7" stroke-width="1.5" stroke-opacity="0.6"></line>
  <line x1="54" y1="22" x2="54" y2="42" stroke="#4f6ef7" stroke-width="1.5" stroke-opacity="0.6"></line>
  <line x1="54" y1="42" x2="54" y2="62" stroke="#4f6ef7" stroke-width="1.5" stroke-opacity="0.6"></line>
  <line x1="54" y1="22" x2="66" y2="22" stroke="#4f6ef7" stroke-width="1.5" stroke-opacity="0.6"></line>
  <line x1="54" y1="42" x2="64" y2="42" stroke="#4f6ef7" stroke-width="1.5" stroke-opacity="0.6"></line>
  <circle cx="14" cy="62" r="2.8" fill="#27272a" stroke="#4f6ef7" stroke-width="1.5"></circle>
  <circle cx="22" cy="42" r="2.8" fill="#27272a" stroke="#4f6ef7" stroke-width="1.5"></circle>
  <circle cx="30" cy="22" r="4" fill="#4f6ef7" stroke="#4f6ef7" stroke-width="0"></circle>
  <circle cx="38" cy="42" r="2.8" fill="#27272a" stroke="#4f6ef7" stroke-width="1.5"></circle>
  <circle cx="46" cy="62" r="2.8" fill="#27272a" stroke="#4f6ef7" stroke-width="1.5"></circle>
  <circle cx="26" cy="45" r="2.8" fill="#27272a" stroke="#4f6ef7" stroke-width="1.5"></circle>
  <circle cx="54" cy="22" r="2.8" fill="#27272a" stroke="#4f6ef7" stroke-width="1.5"></circle>
  <circle cx="54" cy="42" r="2.8" fill="#27272a" stroke="#4f6ef7" stroke-width="1.5"></circle>
  <circle cx="54" cy="62" r="2.8" fill="#27272a" stroke="#4f6ef7" stroke-width="1.5"></circle>
  <circle cx="66" cy="22" r="2.8" fill="#27272a" stroke="#4f6ef7" stroke-width="1.5"></circle>
  <circle cx="64" cy="42" r="2.8" fill="#27272a" stroke="#4f6ef7" stroke-width="1.5"></circle>
</svg>